<svg viewBox="0 0 100 100" xmlns="http://www.w3.org/2000/svg"><path fill-rule="evenodd" d="M11.99 9.79 C9.11 9.87 8.93 9.94 8.37 11.01 C8.00 11.73 8.07 88.28 8.44 89.02 C8.61 89.32 8.95 89.70 9.23 89.87 C9.72 90.16 9.99 90.16 48.46 90.16 C92.00 90.16 87.84 90.28 88.46 89.05 C88.76 88.47 88.76 88.24 88.76 49.90 L88.76 11.32 L88.41 10.83 C88.24 10.55 87.85 10.19 87.57 10.03 L87.05 9.72 L50.83 9.72 C30.90 9.72 13.42 9.75 11.99 9.79 ZM24.58 39.21 C24.77 39.27 24.90 39.42 24.90 39.59 C24.90 40.15 26.89 46.74 28.58 51.75 L30.30 56.89 L30.89 57.08 C31.72 57.36 31.87 57.66 31.44 58.25 C31.13 58.67 31.11 58.77 31.26 59.27 C31.35 59.57 31.42 59.85 31.42 59.88 C31.42 60.06 26.86 60.01 26.73 59.84 C26.65 59.73 26.27 58.83 25.87 57.84 C25.48 56.83 25.08 55.93 24.99 55.81 C24.79 55.54 19.48 55.38 19.30 55.63 C19.24 55.72 18.89 56.68 18.53 57.76 C18.18 58.84 17.82 59.78 17.73 59.85 C17.53 60.01 13.41 60.12 13.26 59.97 C13.19 59.91 13.21 59.73 13.30 59.59 C13.39 59.45 13.64 58.70 13.85 57.91 C14.06 57.14 14.34 56.21 14.46 55.85 C14.59 55.50 14.93 54.40 15.21 53.42 C16.00 50.74 19.69 40.64 20.34 39.38 C20.47 39.11 23.72 38.99 24.58 39.21 ZM82.90 39.24 L83.48 39.35 L82.95 39.94 C82.41 40.55 82.28 40.74 80.47 43.81 C79.27 45.87 79.33 45.72 79.73 45.75 C80.07 45.78 80.46 46.04 80.46 46.25 C80.46 46.47 79.53 46.98 79.10 46.98 C78.73 46.98 77.59 48.41 77.24 49.29 C77.20 49.39 77.76 50.43 78.47 51.60 C79.19 52.77 80.40 54.76 81.17 56.01 C81.94 57.27 82.86 58.70 83.21 59.17 C83.99 60.16 83.99 60.21 83.45 60.10 C83.23 60.04 81.85 59.99 80.39 59.97 L77.72 59.93 L76.31 57.17 C74.59 53.82 74.73 54.01 74.40 54.30 C74.15 54.53 73.17 56.41 72.15 58.65 C71.87 59.26 71.53 59.81 71.36 59.90 C71.14 60.01 65.64 60.03 65.64 59.91 C65.64 59.90 66.16 59.10 66.80 58.13 C69.13 54.62 72.01 50.00 72.01 49.78 C72.01 49.61 71.17 48.19 70.86 47.82 C70.73 47.67 70.43 47.57 70.09 47.57 C69.24 47.57 68.74 47.11 69.11 46.70 C69.27 46.52 69.48 46.39 69.60 46.39 C69.84 46.39 69.84 46.33 69.59 45.81 C69.23 45.13 66.07 40.27 65.76 39.91 L65.47 39.60 L66.27 39.50 C66.70 39.45 67.99 39.39 69.11 39.38 L71.17 39.35 L72.19 41.13 C72.76 42.10 73.45 43.35 73.73 43.90 C74.28 44.98 74.49 45.10 74.83 44.56 C75.16 44.07 76.55 41.42 77.08 40.28 L77.56 39.29 L79.48 39.23 C80.55 39.21 81.63 39.19 81.87 39.17 C82.12 39.16 82.58 39.19 82.90 39.24 ZM37.67 40.46 C37.97 41.07 38.40 42.10 38.62 42.76 C39.27 44.67 41.32 49.70 41.45 49.75 C41.51 49.78 42.19 48.21 42.96 46.27 C44.84 41.51 45.50 39.99 45.76 39.67 C45.97 39.44 46.25 39.42 48.52 39.45 L51.05 39.50 L51.10 39.90 C51.14 40.25 51.21 40.31 51.61 40.31 C52.58 40.31 52.62 40.74 51.69 40.98 C51.13 41.13 51.08 41.39 51.19 43.70 C51.42 48.61 51.56 59.19 51.39 59.67 C51.29 60.00 51.21 60.01 49.38 60.01 L47.47 60.01 L47.38 57.10 C47.32 55.50 47.27 53.04 47.27 51.64 C47.27 48.43 47.14 46.83 46.89 46.83 C46.65 46.83 46.56 47.10 45.51 51.35 C44.71 54.56 43.42 59.05 43.14 59.54 C43.07 59.66 42.61 59.75 41.73 59.76 C40.16 59.82 40.43 60.21 39.13 56.03 C37.63 51.29 36.41 47.85 36.24 47.91 C36.07 47.97 35.93 51.93 35.88 56.93 C35.88 58.62 35.82 60.01 35.76 60.04 C35.69 60.07 34.73 60.07 33.61 60.04 L31.57 60.00 L31.78 59.60 C32.01 59.13 32.21 39.93 31.99 39.51 C31.87 39.29 32.10 39.27 34.49 39.30 L37.13 39.35 L37.67 40.46 ZM59.88 39.57 L64.28 39.57 L64.37 39.97 C64.50 40.61 64.55 43.23 64.43 43.35 C64.37 43.41 62.92 43.44 61.21 43.44 L58.09 43.41 L58.09 45.42 L58.09 47.42 L60.44 47.42 C62.15 47.42 62.83 47.47 62.95 47.60 C63.02 47.70 63.14 48.59 63.20 49.57 C63.26 50.55 63.38 51.44 63.47 51.54 C63.59 51.69 63.10 51.73 60.89 51.72 L58.16 51.69 L58.16 53.82 L58.16 55.94 L59.64 55.94 C60.46 55.94 61.91 55.97 62.87 55.99 L64.61 56.01 L64.61 58.00 L64.61 60.00 L59.17 60.04 C55.66 60.07 53.66 60.03 53.57 59.94 C53.47 59.84 53.45 56.37 53.50 49.82 C53.59 38.46 53.47 39.30 54.81 39.48 C55.17 39.53 57.45 39.57 59.88 39.57 Z M21.32 48.21 C20.84 49.69 20.44 51.10 20.43 51.32 L20.39 51.75 L22.12 51.79 C23.08 51.82 23.90 51.79 23.94 51.72 C23.99 51.64 23.72 50.53 23.33 49.24 C22.95 47.96 22.58 46.64 22.49 46.31 C22.41 45.99 22.30 45.67 22.25 45.61 C22.21 45.56 21.78 46.73 21.32 48.21 Z" /></svg>