<svg viewBox="0 0 100 100" xmlns="http://www.w3.org/2000/svg"><path d="M2.75 84V16C2.75 13.7909 4.54086 12 6.75 12C8.95914 12 10.75 13.7909 10.75 16V84C10.75 86.2091 8.95914 88 6.75 88C4.54086 88 2.75 86.2091 2.75 84Z" /> <path d="M18.75 85V16C18.75 13.7909 20.5409 12 22.75 12C24.9591 12 26.75 13.7909 26.75 16V85C26.75 87.2091 24.9591 89 22.75 89C20.5409 89 18.75 87.2091 18.75 85Z" /> <path d="M31.75 85V16C31.75 13.7909 33.5409 12 35.75 12C37.9591 12 39.75 13.7909 39.75 16V85C39.75 87.2091 37.9591 89 35.75 89C33.5409 89 31.75 87.2091 31.75 85Z" /> <path d="M44.75 85V16C44.75 13.7909 46.5409 12 48.75 12C50.9591 12 52.75 13.7909 52.75 16V85C52.75 87.2091 50.9591 89 48.75 89C46.5409 89 44.75 87.2091 44.75 85Z" /> <path d="M61.75 84V16C61.75 13.7909 63.5409 12 65.75 12C67.9591 12 69.75 13.7909 69.75 16V84C69.75 86.2091 67.9591 88 65.75 88C63.5409 88 61.75 86.2091 61.75 84Z" /> <path d="M77.75 84V16C77.75 13.7909 79.5409 12 81.75 12C83.9591 12 85.75 13.7909 85.75 16V84C85.75 86.2091 83.9591 88 81.75 88C79.5409 88 77.75 86.2091 77.75 84Z" /> <path d="M90 84V16C90 13.7909 91.7909 12 94 12C96.2091 12 98 13.7909 98 16V84C98 86.2091 96.2091 88 94 88C91.7909 88 90 86.2091 90 84Z" /></svg>