<svg viewBox="0 0 100 100" xmlns="http://www.w3.org/2000/svg"><path d="M72 89V97H28V89H72ZM81 80V55C81 50.0294 76.9706 46 72 46H28C23.0294 46 19 50.0294 19 55V80C19 84.9706 23.0294 89 28 89V97C18.6112 97 11 89.3888 11 80V55C11 45.6112 18.6112 38 28 38H72L72.4385 38.0059C81.6247 38.2384 89 45.7578 89 55V80C89 89.2422 81.6247 96.7616 72.4385 96.9941L72 97V89C76.9706 89 81 84.9706 81 80Z" /> <path d="M64 22C64 17.0294 59.9706 13 55 13H45C40.0294 13 36 17.0294 36 22V38H64V22ZM72 46H28V22C28 12.7578 35.3753 5.23844 44.5615 5.00586L45 5H55C64.3888 5 72 12.6112 72 22V46Z" /> <path d="M46 77.5V59C46 56.7909 47.7909 55 50 55C52.2091 55 54 56.7909 54 59V77.5C54 79.7091 52.2091 81.5 50 81.5C47.7909 81.5 46 79.7091 46 77.5Z" /></svg>