<svg viewBox="0 0 100 100" xmlns="http://www.w3.org/2000/svg"><path fill-rule="evenodd" d="M10.90 10.53 C8.91 11.20 8.00 13.39 8.93 15.23 C9.58 16.50 10.38 16.84 12.98 16.95 C14.37 17.02 15.20 17.06 17.08 17.19 C17.45 17.21 18.53 17.27 19.47 17.31 L21.18 17.39 L21.36 18.02 C21.46 18.37 23.49 25.12 25.85 33.03 C28.22 40.94 30.71 49.30 31.41 51.62 L32.65 55.81 L32.49 56.39 C32.40 56.71 32.00 57.96 31.62 59.16 C31.25 60.36 30.81 61.75 30.67 62.24 C29.64 65.63 31.51 68.69 35.06 69.44 C36.27 69.70 79.56 69.69 80.30 69.44 C81.59 69.00 82.26 67.95 82.26 66.35 C82.26 65.09 82.02 64.53 81.22 63.92 C80.40 63.29 81.21 63.32 58.40 63.32 C38.26 63.32 37.19 63.31 37.23 63.11 C37.25 63.01 37.62 61.79 38.06 60.39 C38.49 59.00 38.85 57.83 38.86 57.78 C38.87 57.73 48.14 57.70 59.45 57.70 C81.93 57.70 80.79 57.73 81.63 57.05 C82.48 56.36 82.68 55.94 83.31 53.70 C83.64 52.53 84.18 50.61 84.50 49.44 C85.61 45.51 87.39 39.11 87.76 37.75 C87.97 37.01 88.47 35.23 88.88 33.82 C91.01 26.24 91.01 26.27 90.69 25.15 C90.54 24.64 90.37 24.37 89.92 23.92 C88.88 22.88 92.00 22.97 58.76 22.97 C30.89 22.97 29.40 22.96 29.34 22.77 C29.32 22.67 29.05 21.75 28.77 20.73 C26.82 13.83 26.47 13.08 24.64 11.93 C23.20 11.03 22.97 10.99 15.56 10.61 C14.29 10.55 12.83 10.48 12.30 10.44 C11.67 10.41 11.19 10.44 10.90 10.53 Z M37.03 72.95 C31.10 73.99 28.47 81.16 32.26 85.94 C34.46 88.71 38.54 89.59 41.79 88.01 C48.42 84.76 47.53 75.08 40.43 73.10 C39.70 72.90 37.77 72.81 37.03 72.95 Z M73.09 72.91 C73.06 72.94 72.75 72.99 72.40 73.03 C70.57 73.24 68.69 74.27 67.45 75.75 C63.07 80.95 66.75 88.83 73.55 88.83 C77.05 88.83 80.45 86.13 81.13 82.81 C81.19 82.57 81.23 82.34 81.25 82.31 C82.16 78.84 79.63 74.50 76.01 73.33 C75.19 73.06 73.22 72.78 73.09 72.91 Z" /></svg>