<svg viewBox="0 0 100 100" xmlns="http://www.w3.org/2000/svg"><path d="M38.8144 7.87601C48.0513 5.9939 57.6501 7.16322 66.1649 11.208C68.1603 12.1559 69.0093 14.5417 68.0614 16.5371C67.1135 18.5326 64.7278 19.3815 62.7323 18.4336C55.7835 15.1327 47.9501 14.1789 40.412 15.7149C32.874 17.2508 26.0387 21.1937 20.9354 26.9502C15.8322 32.7069 12.7372 39.9659 12.1161 47.6338C11.495 55.3016 13.381 62.9639 17.4911 69.4668C21.6014 75.9698 27.7134 80.9623 34.9062 83.6914C42.0988 86.4205 49.9835 86.7392 57.3729 84.5996C64.7624 82.4601 71.2569 77.978 75.8788 71.8282C80.5007 65.6782 82.9999 58.1931 82.9999 50.5C82.9999 48.2909 84.7908 46.5 86.9999 46.5C89.209 46.5 90.9999 48.2909 90.9999 50.5C90.9999 59.9266 87.9376 69.0981 82.2743 76.6338C76.6109 84.1696 68.6524 89.6625 59.5976 92.2842C50.5429 94.9058 40.8817 94.515 32.0683 91.1709C23.2547 87.8268 15.7659 81.7097 10.7294 73.7412C5.69289 65.7729 3.38051 56.3842 4.1415 46.9883C4.90256 37.5924 8.69578 28.6976 14.9491 21.6436C21.2023 14.5898 29.5777 9.75818 38.8144 7.87601Z" /> <path d="M92.0984 9.24701C93.619 7.64446 96.1502 7.57802 97.7527 9.09857C99.3553 10.6191 99.4217 13.1503 97.9012 14.7529L46.7781 68.6337L26.7674 49.9218C25.1539 48.4129 25.0691 45.8811 26.5779 44.2675C28.0868 42.654 30.6187 42.5692 32.2322 44.0781L46.4412 57.3652L92.0984 9.24701Z" /></svg>