<svg viewBox="0 0 100 100" xmlns="http://www.w3.org/2000/svg"><path d="M50 26C50 18.268 43.732 12 36 12C28.268 12 22 18.268 22 26C22 33.732 28.268 40 36 40V48C23.8497 48 14 38.1503 14 26C14 13.8497 23.8497 4 36 4C48.1503 4 58 13.8497 58 26C58 38.1503 48.1503 48 36 48V40C43.732 40 50 33.732 50 26Z" /> <path d="M61 83C61 70.8497 51.1503 61 39 61H33C21.0394 61 11.3078 70.5446 11.0068 82.4326L11 83V88H61V83ZM69 96H3V83C3 66.4315 16.4315 53 33 53H39C55.5685 53 69 66.4315 69 83V96Z" /> <path d="M64 4C76.1503 4 86 13.8497 86 26C86 38.1503 76.1503 48 64 48C61.7084 48 59.4991 47.6481 57.4219 46.998C59.4647 44.9143 61.2052 42.5344 62.5742 39.9277C63.0431 39.9752 63.5187 40 64 40C71.732 40 78 33.732 78 26C78 18.268 71.732 12 64 12C63.5187 12 63.043 12.0239 62.5742 12.0713C61.2052 9.46473 59.4647 7.08468 57.4219 5.00098C59.4991 4.35095 61.7085 4 64 4Z" /> <path d="M67 53C83.5685 53 97 66.4315 97 83V96H77V88H89V83C89 71.9168 80.8041 62.7496 70.1426 61.2246C67.9595 58.1083 65.3221 55.3341 62.3242 53H67Z" /></svg>