<svg viewBox="0 0 100 100" xmlns="http://www.w3.org/2000/svg"><path fill-rule="evenodd" clip-rule="evenodd" d="M41.9673 34.0058C39.3372 35.3267 37.0733 37.276 35.3764 39.6806C33.6797 42.0852 32.6018 44.8715 32.2387 47.792C31.8758 50.7126 32.2388 53.6789 33.2954 56.4257C34.3521 59.1726 36.0705 61.6175 38.2973 63.542C40.524 65.4661 43.1913 66.8105 46.062 67.458C48.7537 68.065 51.5476 68.0416 54.2241 67.3916L54.7573 67.2529C57.4172 66.5194 59.8694 65.1816 61.9233 63.3466L62.3296 62.9726C64.3295 61.0718 65.8607 58.7359 66.8071 56.1494L66.9887 55.6298L94.6137 64.7832C92.1826 72.1198 87.9799 78.7439 82.3774 84.0683C76.7747 89.3928 69.9447 93.2539 62.4936 95.3086L61.7944 95.4961C54.5531 97.3733 46.9639 97.4958 39.6596 95.8486C32.12 94.1482 25.1159 90.6142 19.268 85.5605C13.6029 80.6646 9.192 74.4884 6.3989 67.5488L6.13425 66.875C3.4459 59.8867 2.46695 52.3606 3.27488 44.9238L3.35886 44.2041C4.31202 36.5339 7.14187 29.2165 11.5981 22.9013C16.0543 16.5864 21.999 11.4677 28.9057 7.99898L41.9673 34.0058ZM25.7202 19.4795C22.8338 21.7757 20.2774 24.4789 18.1352 27.5146C14.4375 32.7548 12.0883 38.8259 11.2973 45.1904C10.5065 51.555 11.2974 58.017 13.6001 64.0029C15.9028 69.9886 19.647 75.3143 24.4995 79.5078C29.3519 83.7011 35.1633 86.6339 41.4194 88.0449C47.6757 89.4558 54.184 89.3014 60.3667 87.5966C66.5493 85.8917 72.2167 82.6884 76.8657 78.2705C79.5589 75.711 81.8626 72.7891 83.7163 69.6005L70.8618 65.3408C69.9602 66.5669 68.9502 67.7167 67.8393 68.7724C64.7524 71.706 60.9896 73.8337 56.8843 74.9658C52.7787 76.0979 48.4566 76.1995 44.3022 75.2627C40.148 74.3257 36.289 72.3782 33.0669 69.5937C29.8447 66.809 27.3586 63.2726 25.8296 59.2978C24.3006 55.3232 23.7752 51.0327 24.3003 46.8066C24.8255 42.5804 26.3849 38.548 28.8403 35.0683C29.7237 33.8164 30.7151 32.6516 31.7973 31.582L25.7202 19.4795Z" /> <path fill-rule="evenodd" clip-rule="evenodd" d="M44.4887 3.32418C50.2351 2.64574 56.0546 3.03463 61.6538 4.46773L62.771 4.76851C68.7107 6.44561 74.262 9.27616 79.1079 13.0986C83.9536 16.9209 87.999 21.6602 91.0132 27.0459C94.0274 32.4318 95.9516 38.3598 96.6753 44.4892L67.7817 47.9003C67.506 45.5653 66.7728 43.3067 65.6245 41.2548C64.5479 39.3314 63.1257 37.6244 61.4311 36.2187L61.0893 35.9414C59.2433 34.4852 57.1284 33.4065 54.8657 32.7675L54.4389 32.6533C52.3061 32.1075 50.0897 31.9603 47.9009 32.2187L44.4887 3.32418ZM55.0551 24.5937C55.721 24.7262 56.3832 24.8833 57.0385 25.0683C60.3125 25.9927 63.3724 27.5542 66.0434 29.6611C68.7144 31.768 70.9446 34.38 72.6059 37.3486C72.9384 37.9427 73.2459 38.5495 73.5298 39.166L86.9653 37.5791C86.1962 35.2902 85.2175 33.0713 84.0327 30.9541C81.5315 26.4848 78.1739 22.5517 74.1528 19.3798C70.1317 16.208 65.5249 13.8584 60.5962 12.4668C58.2609 11.8075 55.8746 11.372 53.4692 11.1572L55.0551 24.5937Z" /></svg>