<svg viewBox="0 0 100 100" xmlns="http://www.w3.org/2000/svg"><path d="M50 19.9999C52.2091 19.9999 54 21.7907 54 23.9999V28.6268C59.2225 30.3139 63 35.2158 63 40.9999H55C55 38.2385 52.7614 35.9999 50 35.9999C47.2386 35.9999 45 38.2385 45 40.9999C45 43.7613 47.2386 45.9999 50 45.9999L50.3359 46.0038C57.3604 46.182 63 51.9325 63 58.9999C63 64.7839 59.2224 69.6848 54 71.3719V75.9999C54 78.209 52.2091 79.9999 50 79.9999C47.7909 79.9999 46 78.209 46 75.9999V71.3719C40.7776 69.6848 37 64.7839 37 58.9999H45C45 61.7613 47.2386 63.9999 50 63.9999C52.7614 63.9999 55 61.7613 55 58.9999C55 56.3246 52.8989 54.1404 50.2568 54.0067L50 53.9999C42.8203 53.9999 37 48.1796 37 40.9999C37 35.2158 40.7775 30.3139 46 28.6268V23.9999C46 21.7907 47.7909 19.9999 50 19.9999Z" /> <path fill-rule="evenodd" clip-rule="evenodd" d="M75 3.99988C87.7025 3.99988 97.9999 14.2974 98 26.9999V73.9999L97.9922 74.5936C97.6773 87.0218 87.504 96.9999 75 96.9999H25L24.4062 96.9921C12.1754 96.6821 2.31774 86.8245 2.00781 74.5936L2 73.9999V26.9999C2.00007 14.4959 11.9782 4.32262 24.4062 4.00769L25 3.99988H75ZM25 11.9999C16.7158 11.9999 10.0001 18.7157 10 26.9999V73.9999C10 82.2842 16.7157 88.9999 25 88.9999H75C83.2843 88.9999 90 82.2841 90 73.9999V26.9999C89.9999 18.7157 83.2842 11.9999 75 11.9999H25Z" /></svg>