<svg viewBox="-0.5 0 60 60" xmlns="http://www.w3.org/2000/svg"><path fill-rule="evenodd" clip-rule="evenodd" d="M42.3468 0.199097H5.23387C2.34328 0.199097 0 2.54238 0 5.43297V53.9652C0 56.8558 2.34328 59.1991 5.23387 59.1991H53.7661C56.6567 59.1991 59 56.8558 59 53.9652V15.9007H46.629C44.264 15.9007 42.3468 13.9835 42.3468 11.6185V0.199097ZM7.1371 37.312C7.1371 35.2098 8.8413 33.5055 10.9435 33.5055H34.7339C36.8361 33.5055 38.5403 35.2098 38.5403 37.312C38.5403 39.4142 36.8361 41.1185 34.7339 41.1185H10.9435C8.8413 41.1185 7.1371 39.4142 7.1371 37.312ZM10.9435 44.4491C8.8413 44.4491 7.1371 46.1533 7.1371 48.2555C7.1371 50.3578 8.8413 52.062 10.9435 52.062H23.3145C25.4168 52.062 27.121 50.3578 27.121 48.2555C27.121 46.1533 25.4168 44.4491 23.3145 44.4491H10.9435Z" /> <path d="M49.4838 2.57819C49.4838 1.26429 50.5489 0.199158 51.8628 0.199158H56.6209C57.9348 0.199158 58.9999 1.26429 58.9999 2.57819V7.33625C58.9999 8.65016 57.9348 9.71529 56.6209 9.71529H51.8628C50.5489 9.71529 49.4838 8.65016 49.4838 7.33625V2.57819Z" /></svg>