<svg viewBox="0 0 100 100" xmlns="http://www.w3.org/2000/svg"><path d="M86.6562 24.5355C90.5615 28.4408 90.5615 34.7724 86.6562 38.6777L40.6943 84.6396L35.0374 78.9828L80.9994 33.0208C81.7804 32.2398 81.7804 30.9734 80.9994 30.1924L70.3928 19.5858C69.6117 18.8047 68.3454 18.8047 67.5644 19.5858L21.6024 65.5477L15.9456 59.8909L61.9075 13.9289C65.8127 10.0237 72.1444 10.0237 76.0496 13.9289L86.6562 24.5355Z" /> <path d="M76.0496 42.2132C77.6117 43.7753 77.6117 46.308 76.0496 47.8701C74.4875 49.4321 71.9549 49.4321 70.3928 47.8701L52.7151 30.1924C51.153 28.6303 51.153 26.0976 52.7151 24.5355C54.2772 22.9734 56.8099 22.9734 58.372 24.5355L76.0496 42.2132Z" /> <path d="M19.7808 58.63C21.9418 59.0884 23.3217 61.2115 22.8633 63.3725L17.9136 86.7071C17.4551 88.8681 15.332 90.248 13.171 89.7896C11.01 89.3312 9.63005 87.208 10.0885 85.047L15.0382 61.7125C15.4966 59.5515 17.6198 58.1716 19.7808 58.63Z" /> <path d="M41.9821 80.939C41.5982 78.7636 39.5228 77.311 37.3473 77.6949L13.3057 81.9375C11.1302 82.3215 9.67762 84.3969 10.0615 86.5724C10.4455 88.7478 12.5209 90.2004 14.6964 89.8165L38.738 85.5739C40.9135 85.1899 42.3661 83.1145 41.9821 80.939Z" /></svg>