<svg viewBox="0 -1.5 53 53" xmlns="http://www.w3.org/2000/svg"><path d="M49.6554 17.665C48.6283 17.5159 47.6481 17.1369 46.7877 16.5563C45.9274 15.9758 45.2091 15.2086 44.6864 14.312C44.1636 13.4154 43.8499 12.4124 43.7685 11.3777C43.6871 10.343 43.8402 9.30328 44.2164 8.33596C44.4555 7.70356 44.4907 7.01219 44.3171 6.35877C44.1435 5.70535 43.7697 5.12264 43.2483 4.69233C40.946 2.75904 38.3254 1.2403 35.5034 0.203813C34.8608 -0.0349012 34.1592 -0.0647267 33.4986 0.118585C32.8381 0.301897 32.2522 0.688995 31.8245 1.22473C31.1808 2.0479 30.3581 2.71366 29.4187 3.17154C28.4794 3.62941 27.4481 3.86738 26.4031 3.86738C25.3581 3.86738 24.3268 3.62941 23.3875 3.17154C22.4482 2.71366 21.6254 2.0479 20.9817 1.22473C20.554 0.688995 19.9681 0.301897 19.3076 0.118585C18.647 -0.0647267 17.9455 -0.0349012 17.3029 0.203813C14.6972 1.16073 12.2609 2.52741 10.086 4.25228C9.53778 4.68629 9.1429 5.28441 8.9592 5.95907C8.77549 6.63373 8.8126 7.34948 9.06509 8.00152C9.47127 8.99443 9.63909 10.0687 9.55508 11.1382C9.47108 12.2077 9.1376 13.2426 8.58139 14.1599C8.02518 15.0772 7.26172 15.8514 6.35225 16.4204C5.44279 16.9894 4.41263 17.3373 3.34443 17.4362C2.65092 17.5104 1.99954 17.8052 1.4862 18.2774C0.972853 18.7495 0.624664 19.374 0.492895 20.0589C0.165141 21.6813 3.80915e-05 23.3323 3.80915e-05 24.9875C-0.00237091 26.3732 0.109488 27.7567 0.334477 29.124C0.446452 29.8308 0.788163 30.4811 1.30678 30.9743C1.82539 31.4674 2.49203 31.776 3.20361 31.8523C4.29528 31.9547 5.34653 32.3172 6.26937 32.9093C7.19221 33.5014 7.95979 34.306 8.50787 35.2556C9.05594 36.2053 9.36857 37.2724 9.41958 38.3677C9.47059 39.463 9.2585 40.5545 8.80106 41.551C8.5017 42.1992 8.42744 42.9288 8.59008 43.624C8.75272 44.3192 9.14293 44.9402 9.69877 45.3883C11.9872 47.2865 14.5826 48.7806 17.3733 49.8064C17.7301 49.93 18.1046 49.9954 18.4822 50C19 49.9989 19.51 49.8736 19.9694 49.6347C20.4288 49.3958 20.8242 49.0503 21.1225 48.627C21.7499 47.713 22.5908 46.9659 23.5724 46.4505C24.554 45.9352 25.6465 45.6672 26.7552 45.6699C27.8293 45.6713 28.8883 45.9234 29.8479 46.4062C30.8074 46.889 31.641 47.5892 32.2822 48.451C32.7087 49.0244 33.3129 49.4405 34.0005 49.6347C34.6882 49.8289 35.4208 49.7903 36.0842 49.5247C38.636 48.4978 41.0116 47.0783 43.1251 45.3179C43.656 44.8789 44.034 44.2829 44.2048 43.6155C44.3756 42.9482 44.3303 42.2439 44.0756 41.6038C43.6616 40.6237 43.481 39.5608 43.5483 38.4989C43.6155 37.4371 43.9286 36.4054 44.4629 35.4853C44.9972 34.5652 45.738 33.7819 46.627 33.1973C47.5159 32.6126 48.5285 32.2425 49.585 32.1163C50.2701 32.0216 50.9072 31.7112 51.404 31.2302C51.9009 30.7492 52.2317 30.1224 52.3485 29.4408C52.6312 27.9726 52.7844 26.4825 52.8062 24.9875C52.8065 23.4106 52.6592 21.8372 52.3661 20.2877C52.2473 19.6212 51.9214 19.009 51.4348 18.5382C50.9482 18.0673 50.3256 17.7618 49.6554 17.665ZM35.2041 24.9875C35.2041 26.7282 34.688 28.4298 33.7209 29.8771C32.7538 31.3244 31.3793 32.4525 29.7711 33.1186C28.1629 33.7847 26.3933 33.959 24.6861 33.6194C22.9789 33.2798 21.4107 32.4416 20.1798 31.2108C18.949 29.9799 18.1108 28.4117 17.7712 26.7045C17.4316 24.9973 17.6059 23.2277 18.272 21.6195C18.9382 20.0113 20.0662 18.6368 21.5135 17.6697C22.9608 16.7026 24.6624 16.1865 26.4031 16.1865C28.7373 16.1865 30.9759 17.1137 32.6264 18.7642C34.2769 20.4147 35.2041 22.6533 35.2041 24.9875Z"/></svg>