<svg viewBox="0 0 100 100" xmlns="http://www.w3.org/2000/svg"><path fill-rule="evenodd" d="M55.23 8.25 C54.87 8.30 54.15 8.54 53.65 8.78 C52.75 9.21 52.31 9.65 31.13 30.84 L9.51 52.45 L9.02 53.49 C8.00 55.62 8.06 58.15 9.17 59.81 C9.65 60.55 38.81 89.66 39.55 90.16 C42.07 91.82 45.18 91.60 47.68 89.57 C49.31 88.26 53.42 84.22 71.80 65.87 C90.44 47.27 90.63 47.09 91.11 46.11 C91.89 44.56 92.00 44.00 91.91 41.81 C91.88 40.77 91.79 37.92 91.73 35.48 C91.17 14.84 91.26 16.72 90.77 15.25 C89.65 11.95 87.47 9.88 84.26 9.08 C82.94 8.75 82.84 8.74 70.20 8.47 C64.08 8.33 58.36 8.21 57.48 8.19 C56.62 8.18 55.60 8.20 55.23 8.25 ZM76.18 17.61 C79.42 18.27 81.83 21.29 81.80 24.66 C81.76 30.83 74.10 33.84 69.71 29.41 C64.83 24.49 69.38 16.21 76.18 17.61 ZM62.98 35.39 C64.50 36.88 64.47 37.33 62.63 39.20 L61.29 40.58 L61.84 41.36 C63.79 44.08 64.49 47.15 63.93 50.37 C63.70 51.71 63.43 52.22 62.63 52.94 C61.67 53.78 61.40 53.89 60.46 53.83 C59.42 53.75 59.26 53.64 57.87 52.18 C56.42 50.66 56.33 50.27 57.18 49.30 C59.10 47.06 56.94 42.71 53.27 41.45 C50.49 40.50 48.54 41.54 48.54 43.96 C48.54 45.53 49.34 47.18 51.57 50.19 C53.38 52.65 54.10 53.86 54.65 55.44 C56.07 59.61 53.95 64.55 49.94 66.46 C46.89 67.90 42.48 67.51 39.61 65.54 C39.32 65.34 39.03 65.17 38.98 65.17 C38.93 65.17 38.28 65.76 37.54 66.48 C35.64 68.34 35.31 68.37 33.73 66.72 C32.30 65.23 32.33 64.80 34.07 63.05 C34.73 62.38 35.28 61.81 35.28 61.78 C35.28 61.77 35.01 61.36 34.68 60.87 C33.36 58.92 32.86 57.48 32.76 55.31 C32.63 52.59 33.00 51.05 34.07 49.91 C35.01 48.91 35.45 48.69 36.35 48.80 C37.37 48.92 37.58 49.06 38.79 50.35 C40.22 51.87 40.32 52.38 39.40 53.42 C37.88 55.15 39.49 58.88 42.41 60.38 C46.63 62.59 49.44 60.43 47.76 56.27 C47.36 55.27 46.84 54.43 45.57 52.78 C44.00 50.70 43.09 49.31 42.57 48.21 C40.61 44.00 41.84 39.49 45.69 36.74 C48.89 34.47 53.43 34.55 57.18 36.99 L57.85 37.41 L59.19 36.10 C60.72 34.58 60.83 34.52 61.55 34.51 C62.05 34.51 62.13 34.57 62.98 35.39 Z" /></svg>