<svg viewBox="0 0 59 59" xmlns="http://www.w3.org/2000/svg"><path fill-rule="evenodd" clip-rule="evenodd" d="M54.642 55.474L54.6417 55.4743C52.1486 57.5321 48.9546 58.7026 45.9096 58.7026H11.8467C5.31579 58.7026 0 53.3868 0 46.8559V34.5867C0 28.0558 5.31579 22.74 11.8467 22.74H13.3317C15.4064 22.74 17.088 24.4216 17.088 26.4963C17.088 28.571 15.4064 30.2526 13.3317 30.2526H11.8467C9.45642 30.2526 7.51263 32.1964 7.51263 34.5867V46.8559C7.51263 49.2462 9.45642 51.19 11.8467 51.19H45.9096C47.3128 51.19 48.6603 50.6051 49.6474 49.8549C50.1468 49.4753 50.5884 49.0279 50.9137 48.5436C51.2312 48.0708 51.4874 47.4872 51.4874 46.8559V34.5867C51.4874 32.1964 49.5436 30.2526 47.1533 30.2526H45.6683C43.5936 30.2526 41.912 28.571 41.912 26.4963C41.912 24.4216 43.5936 22.74 45.6683 22.74H47.1533C53.6842 22.74 59 28.0558 59 34.5867V46.8559C59 50.0107 57.4444 53.1629 54.642 55.474Z" /> <path d="M29.4995 35.5087C31.7719 35.5087 33.6139 33.6887 33.6139 31.4434V14.3755L35.6057 16.3435C36.4097 17.1378 37.4625 17.5339 38.5154 17.5339C39.5683 17.5339 40.6212 17.1368 41.4251 16.3435C43.0318 14.756 43.0318 12.1824 41.4251 10.5948L32.4091 1.68565C30.8024 0.0981104 28.1976 0.0981104 26.5909 1.68565L17.5749 10.5938C15.9682 12.1813 15.9682 14.755 17.5749 16.3425C19.1817 17.93 21.7864 17.93 23.3932 16.3425L25.385 14.3745V31.4424C25.385 33.6876 27.227 35.5076 29.4995 35.5076V35.5087Z" /></svg>