<svg viewBox="0 0 59 59" xmlns="http://www.w3.org/2000/svg"><path d="M18.3711 20.9727C14.5579 20.9727 11.457 17.8718 11.457 14.0586C11.457 10.2454 14.5579 7.14453 18.3711 7.14453C22.1843 7.14453 25.2852 10.2454 25.2852 14.0586C25.2852 17.8718 22.1843 20.9727 18.3711 20.9727Z" /> <path d="M37.5 17.2852C32.7347 17.2852 28.8574 13.4079 28.8574 8.64258C28.8574 3.87729 32.7347 0 37.5 0C42.2653 0 46.1426 3.87729 46.1426 8.64258C46.1426 13.4079 42.2653 17.2852 37.5 17.2852Z" /> <path d="M39.2285 17.4598V29.3848C39.2285 30.3402 38.4554 31.1133 37.5 31.1133C36.5446 31.1133 35.7715 30.3402 35.7715 29.3848V17.4598C29.9233 18.3076 25.4004 23.3056 25.4004 29.3848V39.7558C25.4004 40.7113 26.1735 41.4844 27.1289 41.4844H31.0012L32.3213 57.4167C32.3955 58.3112 33.1449 59 34.043 59H40.957C41.8551 59 42.6045 58.3112 42.6787 57.4167L43.9988 41.4844H47.8711C48.8265 41.4844 49.5996 40.7113 49.5996 39.7558V29.3848C49.5996 23.3056 45.0767 18.3076 39.2285 17.4598Z" /> <path d="M21.8281 39.9863V29.6152C21.8281 27.0243 22.5253 24.6166 23.6501 22.4659C22.098 21.5394 20.3063 20.9727 18.3711 20.9727C12.6521 20.9727 8 25.6248 8 31.3438V39.9863C8 40.9417 8.77311 41.7148 9.72852 41.7148H11.6208L13.194 57.4436C13.2818 58.3265 14.0262 59 14.9141 59H21.8281C22.716 59 23.4604 58.3265 23.5482 57.4436L24.8258 44.6707C23.061 43.8425 21.8281 42.0614 21.8281 39.9863Z" /></svg>