<svg viewBox="0 0 100 100" xmlns="http://www.w3.org/2000/svg"><path fill-rule="evenodd" d="M18.91 29.42 C16.31 30.30 14.62 32.20 13.54 35.42 C13.27 36.22 13.02 37.58 12.39 41.66 C11.94 44.53 10.87 51.49 10.00 57.14 C8.78 64.95 8.42 67.56 8.46 68.05 C8.53 68.84 8.98 69.77 9.51 70.19 C10.31 70.84 8.00 70.80 45.63 70.84 L80.18 70.89 L80.97 70.59 C83.86 69.54 86.05 67.02 87.02 63.60 C87.18 63.03 87.68 60.08 88.22 56.49 C88.72 53.11 89.50 47.93 89.95 44.98 C92.00 31.38 91.92 32.08 91.60 31.10 C91.36 30.36 90.88 29.83 90.14 29.47 L89.52 29.17 L54.65 29.15 L19.78 29.11 L18.91 29.42 Z" /></svg>