<svg viewBox="0 0 59 59" xmlns="http://www.w3.org/2000/svg"><path d="M2 54.2488V44.249C2 41.6241 4.12495 39.4991 6.74989 39.4991H19.3121C19.8746 39.4991 20.3121 39.9366 20.3746 40.4366C20.8746 45.124 24.812 48.7489 29.6244 48.7489C34.4368 48.7489 38.3742 45.124 38.8117 40.4366C38.8742 39.8741 39.3116 39.4991 39.8741 39.4991H52.4363C55.0613 39.4991 57.1862 41.6241 57.1862 44.249V54.2488C57.1862 56.8737 55.0613 58.9987 52.4363 58.9987H6.81239C4.18745 59.0612 2 56.9362 2 54.2488ZM27.6244 38.6866C28.7494 39.8116 30.5619 39.8116 31.6243 38.6866L41.6241 28.6868C43.1241 27.1869 42.9366 24.6869 41.0616 23.437C39.6866 22.562 37.8742 22.812 36.6867 23.9995L32.9368 27.7494V3.37492C32.9368 1.49997 31.4368 0 29.5619 0C27.6869 0 26.1869 1.49997 26.1869 3.37492V27.6869L22.437 23.937C21.3121 22.812 19.4371 22.4995 18.0621 23.3745C16.1872 24.6244 15.9997 27.1244 17.4996 28.6244L27.6244 38.6866Z" /></svg>