<svg viewBox="-1.5 0 23 23" xmlns="http://www.w3.org/2000/svg"><path d="M18 2.667h-3.964l-.433-1.3A1.998 1.998 0 0 0 11.706 0H8.294a2 2 0 0 0-1.898 1.367l-.432 1.3H2c-1.103 0-2 .897-2 2V6c0 .743.668.667 1.386.667h17.947A.666.666 0 0 0 20 6V4.667c0-1.103-.897-2-2-2Zm-10.63 0 .291-.878a.666.666 0 0 1 .633-.456h3.412c.287 0 .541.183.632.456l.292.878H7.37ZM1.496 8.089 2.56 20.936a1.99 1.99 0 0 0 1.992 1.82H15.45a1.992 1.992 0 0 0 1.992-1.825l1.063-12.842H1.496Zm5.17 11.333c0 .879-1.333.883-1.333 0V10.09c0-.879 1.333-.883 1.333 0v9.333Zm4 0c0 .879-1.333.883-1.333 0V10.09c0-.879 1.333-.883 1.333 0v9.333Zm4 0c0 .879-1.333.883-1.333 0V10.09a.666.666 0 1 1 1.333 0v9.333Z"/></svg>