<svg viewBox="0 0 20 20" xmlns="http://www.w3.org/2000/svg"><path d="M15.0259 13.8474L18.5948 17.4163L17.4163 18.5948L13.8474 15.0259C12.5642 16.0525 10.9367 16.6667 9.16675 16.6667C5.02675 16.6667 1.66675 13.3067 1.66675 9.16669C1.66675 5.02669 5.02675 1.66669 9.16675 1.66669C13.3067 1.66669 16.6667 5.02669 16.6667 9.16669C16.6667 10.9367 16.0526 12.5641 15.0259 13.8474ZM13.354 13.229C14.373 12.1789 15.0001 10.7464 15.0001 9.16669C15.0001 5.94377 12.3897 3.33335 9.16675 3.33335C5.94383 3.33335 3.33341 5.94377 3.33341 9.16669C3.33341 12.3896 5.94383 15 9.16675 15C10.7464 15 12.1789 14.3729 13.2291 13.3539L13.354 13.229Z" /></svg>