<svg viewBox="0 0 321 321" xmlns="http://www.w3.org/2000/svg"><path d="M279 160.5C279 95.0543 225.946 42 160.5 42C95.0543 42 42 95.0543 42 160.5C42 225.946 95.0543 279 160.5 279C225.946 279 279 225.946 279 160.5ZM299 160.5C299 236.991 236.991 299 160.5 299C84.0086 299 22 236.991 22 160.5C22 84.0086 84.0086 22 160.5 22C236.991 22 299 84.0086 299 160.5Z" /> <path d="M150 226V95C150 89.4772 154.477 85 160 85C165.523 85 170 89.4772 170 95V226C170 231.523 165.523 236 160 236C154.477 236 150 231.523 150 226Z" /> <path d="M95 150L226 150C231.523 150 236 154.477 236 160C236 165.523 231.523 170 226 170L95 170C89.4772 170 85 165.523 85 160C85 154.477 89.4772 150 95 150Z" /></svg>