<svg viewBox="0 0 100 100" xmlns="http://www.w3.org/2000/svg"><path fill-rule="evenodd" d="M29.43 8.08 C28.09 8.49 27.17 9.58 26.84 11.11 C26.72 11.67 26.71 16.65 26.81 24.18 L26.84 26.70 L41.44 26.70 C53.05 26.70 56.05 26.67 56.06 26.56 C56.30 23.04 56.44 12.17 56.27 11.12 C56.05 9.81 55.39 8.87 54.30 8.28 L53.83 8.03 L41.77 8.01 C35.13 8.00 29.58 8.03 29.43 8.08 Z M22.87 20.29 C21.22 20.88 19.83 22.03 19.15 23.39 L18.83 24.03 L18.83 26.09 C18.83 28.17 19.02 33.99 19.31 40.82 C19.40 42.84 19.50 45.61 19.53 46.99 C19.61 49.97 19.75 53.86 19.96 58.62 C20.05 60.56 20.15 62.82 20.18 63.65 C20.21 64.48 20.31 66.53 20.39 68.19 C20.48 69.86 20.58 71.88 20.61 72.69 C20.64 73.49 20.72 75.04 20.77 76.15 C20.83 77.25 20.93 79.90 20.99 82.05 C21.07 84.32 21.17 86.29 21.26 86.78 C21.67 89.09 23.37 90.99 25.75 91.79 C26.32 91.99 26.97 92.00 41.44 92.00 L56.54 92.00 L57.38 91.70 C58.98 91.13 60.24 90.08 61.04 88.65 C61.61 87.61 61.76 86.77 61.84 84.16 C61.87 82.93 61.97 80.32 62.05 78.37 C62.26 73.81 62.41 70.19 62.49 67.92 C62.61 64.39 62.77 60.50 62.81 59.86 C62.83 59.51 62.89 58.26 62.93 57.10 C62.97 55.95 63.02 54.84 63.03 54.67 C63.10 53.70 63.31 48.53 63.46 44.23 C63.56 41.52 63.70 37.57 63.79 35.46 C64.10 28.04 64.19 24.35 64.07 23.91 C63.79 22.89 62.15 20.94 61.20 20.49 C60.54 20.17 59.29 19.95 58.79 20.04 C58.00 20.18 58.00 20.18 58.00 24.71 L58.00 28.75 L41.44 28.75 L24.89 28.75 L24.89 24.71 C24.89 20.65 24.89 20.65 24.65 20.38 C24.28 19.96 23.88 19.94 22.87 20.29 ZM54.53 34.60 C55.28 34.74 55.79 35.14 56.11 35.83 L56.37 36.38 L56.37 42.96 C56.37 50.06 56.36 50.20 55.80 50.88 C55.09 51.75 56.21 51.69 41.44 51.69 L28.28 51.69 L27.81 51.44 C26.54 50.82 26.51 50.56 26.52 42.82 C26.52 35.30 26.51 35.38 27.86 34.75 L28.40 34.49 L41.18 34.49 C49.30 34.49 54.18 34.53 54.53 34.60 ZM33.33 57.68 C34.06 58.07 34.19 58.42 34.19 60.00 C34.19 62.52 34.06 62.61 30.33 62.62 C26.52 62.64 26.51 62.63 26.51 60.10 C26.51 57.50 26.63 57.43 30.31 57.43 C32.75 57.43 32.88 57.44 33.33 57.68 ZM44.50 57.68 C45.12 58.08 45.23 58.42 45.23 60.04 C45.23 61.68 45.11 62.02 44.39 62.44 C43.89 62.73 38.88 62.72 38.36 62.43 C37.66 62.02 37.55 61.67 37.55 60.05 C37.55 58.38 37.66 58.03 38.39 57.64 C38.96 57.33 44.03 57.36 44.50 57.68 ZM55.39 57.62 C56.11 57.99 56.21 58.24 56.24 59.93 C56.29 61.63 56.18 61.95 55.45 62.41 C54.98 62.70 50.00 62.74 49.45 62.46 C48.63 62.04 48.44 61.49 48.50 59.72 C48.53 58.40 48.64 58.15 49.34 57.67 C49.83 57.33 54.75 57.29 55.39 57.62 ZM33.22 66.43 C34.07 66.87 34.14 67.06 34.14 68.90 C34.14 70.74 34.07 70.92 33.21 71.37 C32.50 71.72 27.80 71.69 27.30 71.32 C26.60 70.80 26.51 70.53 26.51 68.88 C26.51 66.30 26.65 66.20 30.35 66.19 C32.62 66.19 32.76 66.20 33.22 66.43 ZM44.25 66.43 C45.13 66.87 45.25 67.19 45.21 68.97 C45.17 70.73 45.09 70.93 44.24 71.37 C43.78 71.60 43.69 71.61 41.21 71.58 L38.66 71.55 L38.26 71.24 C37.65 70.77 37.55 70.42 37.55 68.82 C37.55 66.34 37.76 66.19 41.32 66.19 C43.65 66.19 43.80 66.20 44.25 66.43 ZM55.49 66.44 C56.16 66.81 56.27 67.13 56.27 68.84 C56.27 71.46 56.18 71.54 52.64 71.58 C49.86 71.62 49.52 71.57 49.02 70.99 C48.57 70.49 48.44 69.90 48.50 68.57 C48.54 67.21 48.71 66.81 49.45 66.43 C50.11 66.10 54.86 66.11 55.49 66.44 ZM33.15 75.33 C33.93 75.65 34.14 76.12 34.17 77.73 C34.25 80.36 34.08 80.48 30.40 80.48 C26.61 80.48 26.56 80.44 26.56 77.85 C26.56 76.01 26.66 75.72 27.40 75.36 C27.88 75.11 32.59 75.09 33.15 75.33 ZM44.19 75.33 C44.99 75.66 45.17 76.10 45.21 77.81 C45.25 79.55 45.12 79.90 44.36 80.28 C43.78 80.57 38.96 80.57 38.41 80.28 C37.75 79.94 37.55 79.35 37.55 77.86 C37.55 76.18 37.71 75.80 38.57 75.35 C39.03 75.11 43.64 75.10 44.19 75.33 ZM55.48 75.46 C56.17 75.97 56.27 76.26 56.27 77.81 C56.27 80.37 56.12 80.48 52.39 80.48 C49.44 80.48 49.26 80.44 48.80 79.75 C48.56 79.39 48.53 79.23 48.50 78.11 C48.44 76.39 48.69 75.68 49.49 75.33 C50.10 75.06 55.09 75.16 55.48 75.46 Z M65.31 43.82 C65.24 45.39 65.06 49.73 64.98 52.18 C64.94 53.13 64.85 55.35 64.76 57.10 C64.55 61.50 64.34 66.64 64.06 73.88 C63.99 75.39 63.89 77.29 63.84 78.10 C63.79 78.90 63.71 80.29 63.67 81.20 L63.60 82.83 L63.96 83.04 C64.59 83.38 66.32 83.32 67.11 82.93 C68.47 82.26 68.55 82.12 71.90 74.16 C73.87 69.48 75.67 65.38 76.87 62.82 C77.47 61.51 78.64 58.79 80.03 55.48 C81.09 52.95 81.09 52.94 81.13 51.88 C81.17 50.86 81.16 50.80 80.84 50.12 C80.25 48.94 79.82 48.67 75.74 46.96 C72.95 45.81 70.06 44.57 69.36 44.25 C68.17 43.70 65.46 42.50 65.42 42.50 C65.40 42.50 65.34 43.09 65.31 43.82 Z" /></svg>