<svg viewBox="0 0 100 100" xmlns="http://www.w3.org/2000/svg"><path fill-rule="evenodd" d="M35.43 24.83 C35.29 24.85 34.65 24.93 34.04 25.00 C31.32 25.34 28.15 26.42 25.42 27.95 C11.82 35.55 8.00 53.53 17.33 65.99 C21.33 71.34 27.13 74.83 33.88 75.97 C35.32 76.21 39.24 76.26 40.65 76.06 C44.19 75.55 48.72 73.79 50.76 72.14 L50.97 71.96 L49.24 70.23 C42.95 63.89 40.07 56.40 40.74 48.07 C41.28 41.34 45.03 34.14 50.43 29.47 L50.96 29.01 L50.34 28.60 C46.38 25.96 42.24 24.74 37.36 24.78 C36.46 24.79 35.59 24.82 35.43 24.83 Z M63.86 24.86 C62.39 25.01 61.91 25.09 60.51 25.42 C58.09 25.99 53.98 27.89 52.91 28.94 C52.83 29.01 53.01 29.22 53.61 29.73 C55.73 31.58 58.51 35.10 59.94 37.77 C61.41 40.50 62.43 43.59 62.92 46.74 C63.16 48.26 63.15 52.75 62.92 54.25 C61.91 60.71 59.06 66.05 54.09 70.83 L52.93 71.94 L53.14 72.12 C54.80 73.46 58.37 75.03 61.34 75.71 C64.24 76.37 68.23 76.38 71.37 75.72 C79.57 74.00 86.70 67.89 89.82 59.89 C91.59 55.38 92.00 49.74 90.93 44.82 C88.19 32.23 76.51 23.62 63.86 24.86 Z M50.84 30.86 C40.26 40.77 38.97 55.39 47.68 66.61 C48.67 67.88 50.68 70.04 51.52 70.75 L51.96 71.11 L53.30 69.80 C56.64 66.53 58.83 63.26 60.28 59.37 C60.78 58.03 61.39 55.79 61.53 54.80 C61.54 54.73 61.60 54.25 61.67 53.75 C61.87 52.39 61.82 46.98 61.62 46.66 C61.61 46.64 61.56 46.44 61.54 46.24 C61.21 44.08 60.34 41.43 59.22 39.19 C58.00 36.76 56.81 35.05 54.43 32.34 C54.30 32.20 53.68 31.58 53.04 30.99 L51.89 29.90 L50.84 30.86 Z" /></svg>