<svg viewBox="-3 0 34 34" xmlns="http://www.w3.org/2000/svg"><path xmlns="http://www.w3.org/2000/svg" d="M22.8951 0H4.99055C2.23435 0 0 2.23435 0 4.99055V28.8377C0 31.5939 2.23435 33.8282 4.99055 33.8282H22.8951C25.6513 33.8282 27.8857 31.5939 27.8857 28.8377V4.99055C27.8857 2.23435 25.6513 0 22.8951 0ZM9.81982 9.43983H18.0658C18.7018 9.43931 19.2178 9.95456 19.2183 10.5906C19.2189 11.2266 18.7036 11.7427 18.0676 11.7432C18.067 11.7432 18.0664 11.7432 18.0658 11.7432H9.81982C9.18378 11.7432 8.66816 11.2275 8.66816 10.5915C8.66816 9.95546 9.18378 9.43983 9.81982 9.43983ZM21.0333 24.3885H6.85241C6.21637 24.3885 5.70074 23.8728 5.70074 23.2368C5.70074 22.6008 6.21637 22.0851 6.85241 22.0851H21.0333C21.6693 22.0851 22.1849 22.6008 22.1849 23.2368C22.1849 23.8728 21.6693 24.3885 21.0333 24.3885ZM21.0333 18.0658H6.85241C6.21637 18.0658 5.70074 17.5502 5.70074 16.9141C5.70074 16.2781 6.21637 15.7624 6.85241 15.7624H21.0333C21.6693 15.7624 22.1849 16.2781 22.1849 16.9141C22.1849 17.5502 21.6693 18.0658 21.0333 18.0658Z"/></svg>