<svg viewBox="0 0 59 59" xmlns="http://www.w3.org/2000/svg"><path d="M58.3225 36.1681C58.3365 36.1046 58.359 36.0436 58.3726 35.9799C58.5208 35.2801 58.6125 34.5673 58.7086 33.8558C58.7467 33.5744 58.8118 33.2986 58.8416 33.0155C58.9466 32.0177 59.0001 31.0113 59.0001 30C59.0001 14.0017 45.9984 1 30.0001 1C14.0018 1 1 14.0017 1 30C1 31.0113 1.05333 32.0177 1.15853 33.0155C1.18721 33.2879 1.25004 33.5536 1.28646 33.8247C1.38328 34.5468 1.47705 35.2699 1.62753 35.9801C1.63623 36.0212 1.65105 36.0606 1.65991 36.1017C2.91658 41.9106 5.93789 47.2683 10.3767 51.3472C10.3647 51.3357 10.3601 51.3186 10.3485 51.3069C10.3599 51.3174 10.3696 51.3294 10.381 51.3401C15.7462 56.2796 22.7137 58.9999 29.9998 58.9999C37.2859 58.9999 44.2544 56.2796 49.6164 51.3417C49.6294 51.3298 49.6402 51.3161 49.6532 51.3042C49.6408 51.3167 49.636 51.3351 49.6231 51.3472C54.0447 47.2841 57.0569 41.9509 58.3225 36.1681ZM20.3333 20.7522C20.3333 15.5483 24.2 11.1339 29.1461 10.6989C31.885 10.4572 34.5111 11.3594 36.525 13.2122C38.5229 15.0328 39.6666 17.6266 39.6666 20.3333V23.5555C39.6666 26.2622 38.5227 28.8561 36.525 30.6766C34.7205 32.3361 32.4327 33.2222 30.0161 33.2222C29.7261 33.2222 29.4361 33.2061 29.1461 33.19C24.2 32.755 20.3333 28.3405 20.3333 23.1366V20.7522ZM47.4367 48.969C42.6686 53.3594 36.4768 55.7777 30 55.7777C23.5231 55.7777 17.3321 53.3594 12.561 48.9674C11.6881 48.1668 10.9009 47.293 10.1542 46.3888C11.5283 39.8055 17.3732 34.8331 24.3611 34.8331H35.6389C42.6266 34.8331 48.4712 39.8052 49.8456 46.3882C49.0982 47.293 48.3104 48.1678 47.4367 48.969Z" /></svg>