<svg viewBox="0 0 100 100" xmlns="http://www.w3.org/2000/svg"><path d="M89.5656 51.8405L95.2224 57.4974L57.4979 95.2219L51.841 89.5651L89.5656 51.8405ZM89.5656 47.5979L51.841 9.87331C50.6695 8.7018 48.7699 8.70194 47.5984 9.87331L9.8738 47.5979C8.70222 48.7694 8.70223 50.6689 9.8738 51.8405L47.5984 89.5651C48.77 90.7364 50.6695 90.7366 51.841 89.5651L57.4979 95.2219L57.087 95.6121C52.9081 99.3875 46.5304 99.3871 42.3517 95.6114L41.9415 95.2219L4.21694 57.4974C-0.0788245 53.2016 -0.0788245 46.2368 4.21694 41.941L41.9415 4.21646L42.3517 3.82699C46.6698 -0.0746579 53.3363 0.0548534 57.4979 4.21646L95.2224 41.941L95.6119 42.3512C99.3877 46.5301 99.3877 52.9083 95.6119 57.0872L95.2224 57.4974L89.5656 51.8405C90.7369 50.669 90.7369 48.7694 89.5656 47.5979Z" /> <path d="M46.0782 55.2474C45.4976 59.3881 42.805 62.129 38.6204 63.9005C34.3429 65.7114 28.9686 66.2551 24.435 66.0067C22.232 65.886 20.372 67.5795 20.28 69.7895C20.1879 71.9996 21.8988 73.8886 24.1018 74.0093C29.4003 74.2997 36.0735 73.7172 41.8023 71.292C47.6241 68.8274 52.8974 64.2221 53.9851 56.464C54.2918 54.2763 52.7704 52.2304 50.5871 51.8944C48.4036 51.5585 46.3849 53.0597 46.0782 55.2474Z" /> <path d="M53.8868 55.2474C54.4674 59.3881 57.16 62.129 61.3446 63.9005C65.6221 65.7114 70.9964 66.2551 75.5301 66.0067C77.733 65.886 79.593 67.5795 79.6851 69.7895C79.7771 71.9996 78.0662 73.8886 75.8633 74.0093C70.5648 74.2997 63.8916 73.7172 58.1627 71.292C52.3409 68.8274 47.0676 64.2221 45.9799 56.464C45.6732 54.2763 47.1946 52.2304 49.378 51.8944C51.5614 51.5585 53.5801 53.0597 53.8868 55.2474Z" /> <path d="M46.0782 44.8506C45.4976 40.7099 42.805 37.9689 38.6204 36.1974C34.3429 34.3866 28.9686 33.8428 24.435 34.0913C22.232 34.2119 20.372 32.5185 20.28 30.3084C20.1879 28.0984 21.8988 26.2094 24.1018 26.0886C29.4003 25.7983 36.0735 26.3807 41.8023 28.8059C47.6241 31.2705 52.8974 35.8759 53.9851 43.634C54.2918 45.8216 52.7704 47.8675 50.5871 48.2035C48.4036 48.5395 46.3849 47.0383 46.0782 44.8506Z" /> <path d="M53.8868 44.8506C54.4674 40.7099 57.16 37.9689 61.3446 36.1974C65.6221 34.3866 70.9964 33.8428 75.5301 34.0913C77.733 34.2119 79.593 32.5185 79.6851 30.3084C79.7771 28.0984 78.0662 26.2094 75.8633 26.0886C70.5648 25.7983 63.8916 26.3807 58.1627 28.8059C52.3409 31.2705 47.0676 35.8759 45.9799 43.634C45.6732 45.8216 47.1946 47.8675 49.378 48.2035C51.5614 48.5395 53.5801 47.0383 53.8868 44.8506Z" /></svg>