<svg viewBox="0 0 16 16" xmlns="http://www.w3.org/2000/svg"><path d="M10.644 2.684L5.133 5.127 7.667 6.25l5.511-2.443-2.533-1.123zM4.311 4.762L9.822 2.32l-1.885-.835a.66.66 0 0 0-.27-.057.66.66 0 0 0-.27.057L2.156 3.807l2.155.955zm3.022 2.069L1.667 4.319v6.556c0 .129.037.255.108.364s.171.194.289.246l5.27 2.336v-6.99zM8 11.333v2.488l.714-.317A3.64 3.64 0 0 1 8 11.333z"/><path d="M11.667 7.667c.71-.001 1.406.207 2 .596V4.319L8 6.831v4.502a3.67 3.67 0 0 1 3.667-3.667zm0 .666a3 3 0 0 0-2.122 5.121 3 3 0 0 0 5.121-2.122 3 3 0 0 0-3-3zm1.236 3.764a.33.33 0 0 1 .074.108c.017.041.026.084.027.128a.32.32 0 0 1-.025.129c-.017.041-.042.078-.073.109s-.068.056-.109.073-.085.025-.129.025-.088-.009-.128-.027-.077-.042-.108-.074l-.764-.764-.764.764c-.031.031-.068.057-.108.074a.35.35 0 0 1-.128.027.32.32 0 0 1-.129-.025c-.041-.017-.078-.041-.109-.073s-.056-.068-.073-.109-.025-.085-.025-.129.009-.088.027-.128a.33.33 0 0 1 .074-.108l.764-.764-.764-.764a.33.33 0 0 1-.074-.108.35.35 0 0 1-.027-.128.32.32 0 0 1 .025-.129c.017-.041.041-.078.073-.109s.068-.056.109-.073.085-.025.129-.025a.33.33 0 0 1 .236.1l.764.764.764-.764c.031-.031.068-.057.108-.074a.33.33 0 0 1 .128-.026c.044 0 .088.008.129.025s.078.042.109.073a.33.33 0 0 1 .073.109c.017.041.025.085.025.129a.33.33 0 0 1-.1.236l-.764.764.764.764z"/></svg>