<svg viewBox="0 0 59 59" xmlns="http://www.w3.org/2000/svg"><path d="M57.2715 13.5503H50.3574C49.4028 13.5503 48.6289 14.3242 48.6289 15.2788V27.1315C48.3387 27.0929 48.0924 26.985 47.8391 26.7904C46.7997 25.9924 45.2396 25.5347 43.5586 25.5347C41.8774 25.5347 40.3173 25.9924 39.2782 26.7903C39.0248 26.9849 38.7783 27.0929 38.4883 27.1314V15.2788C38.4883 14.3242 37.7144 13.5503 36.7598 13.5503H29.8457C28.8911 13.5503 28.1172 14.3242 28.1172 15.2788V51.9233C28.1172 54.7826 30.4434 57.1089 33.3027 57.1089H53.8145C56.6736 57.1089 58.9999 54.7826 58.9999 51.9233L59 15.2788C59 14.3242 58.2261 13.5503 57.2715 13.5503Z" /> <path d="M20.4301 12.2622H3.53009L1.31713 17.0246C0.2239 19.3771 0 21.6515 0 24.3428V53.5182C0 55.483 1.59853 57.0815 3.56339 57.0815H5.7018C6.69811 57.0815 7.62955 56.656 8.29008 55.9589C8.95071 56.6559 9.88204 57.0815 10.8784 57.0815H13.0169C14.0131 57.0815 14.9445 56.6559 15.6052 55.9589C16.2657 56.6559 17.197 57.0815 18.1933 57.0815H20.3318C22.2967 57.0815 23.8952 55.4829 23.8952 53.5182V24.3443C23.8952 22.06 23.7361 19.5932 22.5813 17.0322L20.4301 12.2622Z" /> <path d="M20.6759 3.61963C20.6759 2.66503 19.902 1.89111 18.9474 1.89111H4.94781C3.99321 1.89111 3.2193 2.66503 3.2193 3.61963V8.80518H20.6759V3.61963Z" /></svg>