<svg viewBox="0 -0.5 30 30" xmlns="http://www.w3.org/2000/svg"><path d="M0.833435 18.3334H4.16656C4.62677 18.3334 5 18.7064 5 19.1666V27.5C5 27.9602 4.62677 28.3334 4.16656 28.3334H0.833435C0.37323 28.3334 0 27.9602 0 27.5V19.1666C0 18.7064 0.37323 18.3334 0.833435 18.3334Z" /> <path d="M9.16663 11.6666H12.5001C12.9603 11.6666 13.3335 12.0398 13.3335 12.5V27.5C13.3335 27.9602 12.9603 28.3334 12.5001 28.3334H9.16663C8.70642 28.3334 8.3335 27.9602 8.3335 27.5V12.5C8.3335 12.0398 8.70642 11.6666 9.16663 11.6666Z" /> <path d="M17.4999 15H20.8334C21.2936 15 21.6665 15.3732 21.6665 15.8334V27.5C21.6665 27.9602 21.2936 28.3334 20.8334 28.3334H17.4999C17.0397 28.3334 16.6665 27.9602 16.6665 27.5V15.8334C16.6665 15.3732 17.0397 15 17.4999 15Z" /> <path d="M25.8334 10H29.1666C29.6268 10 30 10.3732 30 10.8334V27.5C30 27.9602 29.6268 28.3334 29.1666 28.3334H25.8334C25.3732 28.3334 25 27.9602 25 27.5V10.8334C25 10.3732 25.3732 10 25.8334 10Z" /> <path d="M27.5 0C26.12 0.00152587 25.0015 1.12 25 2.5C25.0034 2.77222 25.0516 3.04199 25.1428 3.29834L20.9711 5.7782C20.4236 5.19745 19.6298 4.91608 18.8388 5.02197C18.0475 5.12787 17.356 5.60822 16.9803 6.31256L13.3008 4.49005C13.3188 4.38293 13.3295 4.2749 13.3334 4.16656C13.3353 3.1546 12.7271 2.24152 11.7926 1.85303C10.8582 1.46484 9.7818 1.67816 9.06616 2.39349C8.35022 3.10883 8.13629 4.18488 8.52417 5.11963L3.75122 8.68164C3.3728 8.45612 2.94067 8.33588 2.5 8.33344C1.11938 8.33344 0 9.45251 0 10.8334C0 12.2141 1.11938 13.3334 2.5 13.3334C3.88062 13.3334 5 12.2141 5 10.8334C4.99786 10.5325 4.9411 10.235 4.83246 9.95453L9.65302 6.35681C10.596 6.88263 11.7722 6.72852 12.5476 5.97717L16.7319 8.04962C17.0108 9.29199 18.1799 10.1257 19.4455 9.98474C20.7111 9.84375 21.6681 8.7735 21.6666 7.5C21.6666 7.43652 21.6525 7.37671 21.6479 7.31445L26.1853 4.617C26.5787 4.86572 27.0343 4.99847 27.5 5C28.8806 5 30 3.88062 30 2.5C30 1.11938 28.8806 0 27.5 0Z" /></svg>