<svg viewBox="0 0 100 100" xmlns="http://www.w3.org/2000/svg"><path fill-rule="evenodd" clip-rule="evenodd" d="M50 1C52.2091 1 54 2.79086 54 5V12.3213C69.2652 14.505 81 27.631 81 43.5V74.9121L80.9922 75.2246C80.8346 78.338 78.338 80.8346 75.2246 80.9922L74.9121 81H64V83.5C64 91.5081 57.5081 98 49.5 98C41.4919 98 35 91.5081 35 83.5V81H24.0879C20.8305 80.9998 18.1706 78.4416 18.0078 75.2246L18 74.9121V43.5C18 27.2861 30.2503 13.9355 46 12.1943V5C46 2.79086 47.7909 1 50 1ZM43 83.5C43 87.0899 45.9102 90 49.5 90C53.0899 90 56 87.0899 56 83.5V81H43V83.5ZM49.5 20C36.5213 20 26 30.5213 26 43.5V73H73V43.5C73 30.5213 62.4787 20 49.5 20Z" /></svg>