<svg viewBox="0 0 100 100" xmlns="http://www.w3.org/2000/svg"><path d="M21.9707 55.485C23.5327 53.9232 26.0649 53.9233 27.627 55.485C29.1891 57.0471 29.1891 59.5801 27.627 61.1422L19.8174 68.9518H75.6523C77.0312 68.9518 78.397 68.6806 79.6709 68.153C80.9447 67.6253 82.1022 66.8515 83.0771 65.8766C84.0521 64.9017 84.8258 63.7441 85.3535 62.4703C85.8812 61.1965 86.1523 59.8306 86.1523 58.4518C86.1523 56.2426 87.9432 54.4518 90.1523 54.4518C92.3615 54.4518 94.1523 56.2426 94.1523 58.4518C94.1523 60.8812 93.6738 63.2874 92.7441 65.5319C91.8144 67.7762 90.4511 69.8151 88.7334 71.5328C87.0156 73.2506 84.9768 74.6139 82.7324 75.5436C80.6282 76.4152 78.3818 76.89 76.1074 76.9459L75.6523 76.9518H20.8096L27.9805 84.1227C29.5426 85.6848 29.5426 88.2178 27.9805 89.7799C26.4184 91.3419 23.8863 91.3419 22.3242 89.7799L8.18164 75.6383C8.12248 75.5791 8.0664 75.5175 8.01172 75.4557C7.94942 75.4007 7.88771 75.3434 7.82812 75.2838C6.26647 73.7218 6.26639 71.1896 7.82812 69.6276L21.9707 55.485ZM71.1719 10.8287C72.734 9.26664 75.266 9.26664 76.8281 10.8287L90.9707 24.9703C91.0299 25.0295 91.0859 25.0911 91.1406 25.153C91.2029 25.208 91.2647 25.2643 91.3242 25.3239C92.8863 26.8859 92.8862 29.419 91.3242 30.9811L77.1816 45.1227C75.6195 46.6848 73.0875 46.6848 71.5254 45.1227C69.9633 43.5606 69.9633 41.0285 71.5254 39.4664L79.334 31.6569H23.5C22.1211 31.6569 20.7554 31.928 19.4814 32.4557C18.2076 32.9834 17.0502 33.7571 16.0752 34.7321C15.1002 35.707 14.3265 36.8645 13.7988 38.1383C13.2712 39.4122 13 40.778 13 42.1569C13 44.366 11.2091 46.1569 9 46.1569C6.79086 46.1569 5 44.366 5 42.1569C5 39.7274 5.47849 37.3213 6.4082 35.0768C7.33791 32.8324 8.70115 30.7936 10.4189 29.0758C12.1367 27.358 14.1755 25.9948 16.4199 25.0651C18.6644 24.1354 21.0705 23.6569 23.5 23.6569H78.3428L71.1719 16.485C69.6098 14.9229 69.6098 12.3908 71.1719 10.8287Z" /></svg>