<svg viewBox="0 0 321 321" xmlns="http://www.w3.org/2000/svg"><path d="M171.482 88.741C171.482 63.8269 151.285 43.6297 126.371 43.6296C101.456 43.6296 81.2593 63.8268 81.2593 88.741C81.2594 113.655 101.456 133.852 126.371 133.852C151.285 133.852 171.482 113.655 171.482 88.741ZM191.482 88.741C191.482 124.701 162.33 153.852 126.371 153.852C90.4108 153.852 61.2594 124.701 61.2593 88.741C61.2593 52.7811 90.4107 23.6296 126.371 23.6296C162.33 23.6297 191.482 52.7812 191.482 88.741Z" /> <path d="M195.593 209.297C195.593 198.967 187.218 190.593 176.889 190.593H74.7041C64.3743 190.593 56 198.967 56 209.297V260.963C56 271.292 64.3743 279.667 74.7041 279.667H176.889C187.218 279.667 195.593 271.292 195.593 260.963V209.297ZM215.593 260.963C215.593 282.338 198.264 299.667 176.889 299.667H74.7041C53.3286 299.667 36 282.338 36 260.963V209.297C36 187.921 53.3286 170.593 74.7041 170.593H176.889C198.264 170.593 215.593 187.921 215.593 209.297V260.963Z" /> <path d="M200.297 20.8145C236.256 20.8148 265.408 49.9663 265.408 85.9258C265.408 121.885 236.256 151.037 200.297 151.037C200.198 151.037 200.099 151.036 200 151.035V131.033C200.099 131.034 200.198 131.037 200.297 131.037C225.211 131.037 245.408 110.84 245.408 85.9258C245.408 61.012 225.211 40.8148 200.297 40.8145C200.198 40.8145 200.099 40.8167 200 40.8174V20.8164C200.099 20.816 200.198 20.8145 200.297 20.8145Z" /> <path d="M250.814 167.777C272.19 167.777 289.518 185.106 289.519 206.481V258.147C289.519 279.523 272.19 296.852 250.814 296.852H233V276.852H250.814C261.144 276.852 269.519 268.477 269.519 258.147V206.481C269.518 196.152 261.144 187.777 250.814 187.777H233V167.777H250.814Z" /></svg>