<svg viewBox="0 0 100 100" xmlns="http://www.w3.org/2000/svg"><path fill-rule="evenodd" d="M10.86 23.68 C9.50 24.16 8.59 25.17 8.21 26.57 C8.01 27.35 8.00 72.44 8.21 73.21 C8.67 74.95 10.15 76.22 12.03 76.46 C12.58 76.53 24.77 76.56 50.61 76.54 L88.39 76.51 L89.03 76.27 C90.31 75.80 91.42 74.67 91.82 73.45 C91.99 72.93 92.00 71.82 92.00 49.80 L92.00 26.70 L91.77 26.13 C91.26 24.86 90.30 23.96 89.05 23.60 C88.56 23.46 84.76 23.44 50.02 23.44 L11.53 23.44 L10.86 23.68 ZM61.86 39.14 C62.99 39.29 64.47 39.62 64.61 39.76 C64.66 39.82 63.36 43.65 63.24 43.78 C63.22 43.79 62.92 43.72 62.57 43.60 C60.07 42.76 57.11 42.96 56.47 44.02 C55.90 44.96 56.36 45.64 58.43 46.89 C62.15 49.15 63.00 50.28 63.02 52.96 C63.04 56.83 60.43 59.54 56.09 60.12 C53.45 60.48 47.91 59.81 47.78 59.12 C47.77 59.04 48.07 58.07 48.45 56.96 C49.23 54.70 49.08 54.85 50.21 55.25 C52.44 56.03 55.20 56.06 56.68 55.31 C57.47 54.91 57.71 53.96 57.23 53.15 C56.93 52.66 56.51 52.34 54.72 51.25 C51.70 49.43 50.82 48.39 50.55 46.39 C49.84 40.95 54.24 38.12 61.86 39.14 ZM26.75 39.68 C27.12 40.09 27.26 40.52 27.74 42.78 C27.94 43.70 28.44 45.94 28.85 47.78 C29.28 49.61 29.67 51.49 29.74 51.95 C29.80 52.43 29.89 52.78 29.93 52.73 C30.00 52.66 30.83 50.67 32.97 45.44 C34.25 42.32 35.43 39.57 35.54 39.43 C35.65 39.28 41.04 39.24 41.04 39.39 C41.04 39.49 39.56 42.92 36.34 50.25 C35.64 51.84 34.39 54.70 33.56 56.58 L32.07 60.02 L29.35 60.02 C27.84 60.02 26.61 60.00 26.61 59.97 C26.61 59.90 23.93 48.54 23.49 46.71 C22.52 42.77 21.23 41.17 18.38 40.44 C17.42 40.19 17.06 39.96 17.11 39.64 C17.16 39.32 17.47 39.30 22.13 39.32 L26.43 39.33 L26.75 39.68 ZM48.76 39.38 C48.76 39.43 48.26 41.64 47.64 44.31 C46.65 48.65 45.55 53.50 44.51 58.07 C44.31 58.95 44.12 59.75 44.09 59.84 C44.02 60.08 38.84 60.12 38.84 59.89 C38.84 59.82 39.04 58.91 39.28 57.87 C39.53 56.81 40.07 54.47 40.49 52.66 C42.50 44.00 43.56 39.52 43.59 39.41 C43.65 39.27 48.76 39.23 48.76 39.38 ZM77.33 39.39 C78.10 39.58 78.23 39.85 78.72 42.08 C79.36 45.06 81.55 54.54 82.42 58.14 C82.65 59.07 82.83 59.86 82.83 59.92 C82.83 59.98 81.91 60.02 80.22 60.02 L77.62 60.02 L77.55 59.74 C77.52 59.59 77.37 58.97 77.23 58.37 L76.97 57.27 L73.27 57.27 L69.58 57.27 L69.14 58.39 C68.91 59.00 68.64 59.62 68.54 59.76 L68.38 60.02 L65.64 60.02 L62.91 60.02 L63.36 58.99 C63.61 58.43 64.40 56.65 65.12 55.06 C65.83 53.46 67.10 50.58 67.92 48.66 C70.88 41.72 72.01 39.61 72.85 39.43 C73.47 39.29 76.84 39.26 77.33 39.39 Z M74.01 44.67 C74.01 46.18 73.47 48.11 72.35 50.57 C71.94 51.46 71.61 52.24 71.61 52.29 C71.61 52.37 72.26 52.41 73.56 52.41 C75.17 52.41 75.56 52.44 75.87 52.58 C76.06 52.67 76.24 52.72 76.26 52.70 C76.32 52.65 75.62 49.92 75.07 48.00 C74.88 47.30 74.61 46.16 74.48 45.45 C74.22 44.03 74.01 43.68 74.01 44.67 Z" /></svg>