<svg viewBox="0 0 100 100" xmlns="http://www.w3.org/2000/svg"><path d="M90.1715 95.8371L5.09356 10.7592C3.53147 9.19712 3.53147 6.66446 5.09356 5.10236C6.65566 3.54026 9.18832 3.54026 10.7504 5.10236L95.8283 90.1803C97.3903 91.7424 97.3904 94.2751 95.8283 95.8371C94.2663 97.3992 91.7336 97.3991 90.1715 95.8371Z" /> <path d="M5.09316 90.1699L90.1711 5.09198C91.7332 3.52988 94.2658 3.52988 95.8279 5.09198C97.39 6.65407 97.39 9.18673 95.8279 10.7488L10.75 95.8268C9.18791 97.3887 6.65521 97.3888 5.09316 95.8268C3.5311 94.2647 3.53119 91.732 5.09316 90.1699Z" /></svg>